<svg width="368" height="330" viewBox="0 0 368 330" fill="none" xmlns="http://www.w3.org/2000/svg">
<g filter="url(#filter0_d_2_87)">
<rect width="329" height="292" transform="translate(19.5 6)" fill="white"/>
<path d="M149 51C149 45.4772 153.477 41 159 41H209C214.523 41 219 45.4772 219 51V107C219 112.523 214.523 117 209 117H159C153.477 117 149 112.523 149 107V51Z" fill="#E74040"/>
<path d="M186.213 68.7337C186.087 68.1128 185.54 67.667 184.907 67.667H175.333C174.597 67.667 174 68.2639 174 69.0003V89.0003C174 89.7367 174.597 90.3337 175.333 90.3337C176.07 90.3337 176.667 89.7367 176.667 89.0003V81.0003H184.133L184.453 82.6003C184.574 83.2247 185.124 83.6735 185.76 83.667H192.667C193.403 83.667 194 83.07 194 82.3337V71.667C194 70.9306 193.403 70.3337 192.667 70.3337H186.533L186.213 68.7337Z" fill="white"/>
<path d="M120.875 148.12V151.976C120.875 152.307 120.96 152.568 121.131 152.76C121.302 152.941 121.504 153.032 121.739 153.032C122.187 153.032 122.566 152.829 122.875 152.424L123.771 154.104C123.024 154.787 122.235 155.128 121.403 155.128C120.582 155.128 119.883 154.856 119.307 154.312C118.742 153.768 118.459 153.027 118.459 152.088V148.12H117.451V146.392H118.459V143.816H120.875V146.392H122.955V148.12H120.875ZM129.686 148.504C128.971 148.504 128.438 148.76 128.086 149.272C127.734 149.773 127.558 150.44 127.558 151.272V155H125.158V146.392H127.558V147.528C127.867 147.176 128.251 146.877 128.71 146.632C129.179 146.387 129.654 146.259 130.134 146.248L130.15 148.504H129.686ZM139.07 155H136.814V153.96C136.195 154.739 135.427 155.128 134.51 155.128C133.603 155.128 132.841 154.867 132.222 154.344C131.603 153.811 131.294 153.107 131.294 152.232C131.294 151.347 131.614 150.685 132.254 150.248C132.894 149.811 133.769 149.592 134.878 149.592H136.67V149.544C136.67 148.627 136.185 148.168 135.214 148.168C134.798 148.168 134.355 148.253 133.886 148.424C133.427 148.584 133.038 148.787 132.718 149.032L131.646 147.48C132.777 146.659 134.067 146.248 135.518 146.248C136.563 146.248 137.417 146.509 138.078 147.032C138.739 147.555 139.07 148.381 139.07 149.512V155ZM136.654 151.72V151.304H135.15C134.19 151.304 133.71 151.603 133.71 152.2C133.71 152.509 133.822 152.749 134.046 152.92C134.281 153.08 134.611 153.16 135.038 153.16C135.465 153.16 135.838 153.032 136.158 152.776C136.489 152.509 136.654 152.157 136.654 151.72ZM143.758 155H141.358V146.392H143.758V155ZM141.55 145.304C141.283 145.027 141.15 144.691 141.15 144.296C141.15 143.901 141.283 143.571 141.55 143.304C141.827 143.027 142.163 142.888 142.558 142.888C142.953 142.888 143.283 143.027 143.55 143.304C143.827 143.571 143.966 143.901 143.966 144.296C143.966 144.691 143.827 145.027 143.55 145.304C143.283 145.571 142.953 145.704 142.558 145.704C142.163 145.704 141.827 145.571 141.55 145.304ZM148.53 150.2V155H146.13V146.392H148.53V147.352C149.255 146.616 150.071 146.248 150.978 146.248C151.884 146.248 152.642 146.568 153.25 147.208C153.868 147.848 154.178 148.701 154.178 149.768V155H151.778V150.136C151.778 148.813 151.292 148.152 150.322 148.152C149.842 148.152 149.42 148.328 149.058 148.68C148.706 149.021 148.53 149.528 148.53 150.2ZM158.849 155H156.449V146.392H158.849V155ZM156.641 145.304C156.374 145.027 156.241 144.691 156.241 144.296C156.241 143.901 156.374 143.571 156.641 143.304C156.918 143.027 157.254 142.888 157.649 142.888C158.043 142.888 158.374 143.027 158.641 143.304C158.918 143.571 159.057 143.901 159.057 144.296C159.057 144.691 158.918 145.027 158.641 145.304C158.374 145.571 158.043 145.704 157.649 145.704C157.254 145.704 156.918 145.571 156.641 145.304ZM163.62 150.2V155H161.22V146.392H163.62V147.352C164.346 146.616 165.162 146.248 166.068 146.248C166.975 146.248 167.732 146.568 168.34 147.208C168.959 147.848 169.268 148.701 169.268 149.768V155H166.868V150.136C166.868 148.813 166.383 148.152 165.412 148.152C164.932 148.152 164.511 148.328 164.148 148.68C163.796 149.021 163.62 149.528 163.62 150.2ZM177.571 150.52C177.571 149.827 177.379 149.283 176.995 148.888C176.611 148.493 176.136 148.296 175.571 148.296C175.006 148.296 174.515 148.493 174.099 148.888C173.694 149.283 173.491 149.821 173.491 150.504C173.491 151.187 173.688 151.741 174.083 152.168C174.488 152.584 174.979 152.792 175.555 152.792C176.131 152.792 176.611 152.584 176.995 152.168C177.379 151.752 177.571 151.203 177.571 150.52ZM177.907 153.544C177.15 154.387 176.206 154.808 175.075 154.808C173.955 154.808 173.006 154.429 172.227 153.672C171.459 152.904 171.075 151.885 171.075 150.616C171.075 149.336 171.47 148.291 172.259 147.48C173.059 146.659 173.971 146.248 174.995 146.248C176.019 146.248 176.867 146.669 177.539 147.512V146.376H179.939V153.88C179.939 154.648 179.806 155.331 179.539 155.928C179.272 156.525 178.915 156.995 178.467 157.336C177.582 158.04 176.536 158.392 175.331 158.392C174.691 158.392 174.035 158.285 173.363 158.072C172.702 157.869 172.12 157.576 171.619 157.192L172.547 155.384C173.336 155.981 174.168 156.28 175.043 156.28C175.928 156.28 176.627 156.061 177.139 155.624C177.651 155.187 177.907 154.493 177.907 153.544ZM192.006 152.792C193.232 152.792 194.235 152.307 195.014 151.336L196.614 152.984C195.344 154.413 193.846 155.128 192.118 155.128C190.4 155.128 188.982 154.584 187.862 153.496C186.752 152.408 186.198 151.037 186.198 149.384C186.198 147.72 186.763 146.333 187.894 145.224C189.035 144.115 190.427 143.56 192.07 143.56C193.904 143.56 195.44 144.259 196.678 145.656L195.126 147.416C194.336 146.435 193.355 145.944 192.182 145.944C191.243 145.944 190.438 146.253 189.766 146.872C189.104 147.48 188.774 148.307 188.774 149.352C188.774 150.387 189.088 151.219 189.718 151.848C190.347 152.477 191.11 152.792 192.006 152.792ZM200.025 150.696C200.025 151.4 200.222 151.976 200.617 152.424C201.022 152.861 201.534 153.08 202.153 153.08C202.782 153.08 203.294 152.861 203.689 152.424C204.094 151.976 204.297 151.4 204.297 150.696C204.297 149.992 204.094 149.416 203.689 148.968C203.294 148.52 202.782 148.296 202.153 148.296C201.534 148.296 201.022 148.52 200.617 148.968C200.222 149.416 200.025 149.992 200.025 150.696ZM206.713 150.696C206.713 151.944 206.281 152.995 205.417 153.848C204.553 154.701 203.465 155.128 202.153 155.128C200.851 155.128 199.769 154.701 198.905 153.848C198.041 152.995 197.609 151.944 197.609 150.696C197.609 149.448 198.041 148.397 198.905 147.544C199.769 146.68 200.851 146.248 202.153 146.248C203.465 146.248 204.553 146.68 205.417 147.544C206.281 148.397 206.713 149.448 206.713 150.696ZM214.147 151.032V146.392H216.563V155H214.147V153.864C213.55 154.707 212.777 155.128 211.827 155.128C210.889 155.128 210.099 154.835 209.459 154.248C208.819 153.651 208.499 152.771 208.499 151.608V146.392H210.915V151.08C210.915 152.403 211.401 153.064 212.371 153.064C212.851 153.064 213.267 152.893 213.619 152.552C213.971 152.2 214.147 151.693 214.147 151.032ZM223.458 148.504C222.743 148.504 222.21 148.76 221.858 149.272C221.506 149.773 221.33 150.44 221.33 151.272V155H218.93V146.392H221.33V147.528C221.639 147.176 222.023 146.877 222.482 146.632C222.951 146.387 223.426 146.259 223.906 146.248L223.922 148.504H223.458ZM232.025 152.328C232.025 153.171 231.711 153.848 231.081 154.36C230.463 154.872 229.673 155.128 228.713 155.128C228.073 155.128 227.407 155.016 226.713 154.792C226.02 154.557 225.396 154.216 224.841 153.768L225.897 152.264C226.793 152.957 227.748 153.304 228.761 153.304C229.071 153.304 229.316 153.245 229.497 153.128C229.679 153 229.769 152.835 229.769 152.632C229.769 152.429 229.641 152.243 229.385 152.072C229.14 151.901 228.777 151.741 228.297 151.592C227.828 151.443 227.465 151.315 227.209 151.208C226.964 151.101 226.681 150.947 226.361 150.744C225.711 150.339 225.385 149.741 225.385 148.952C225.385 148.152 225.705 147.501 226.345 147C226.985 146.499 227.812 146.248 228.825 146.248C229.839 146.248 230.852 146.589 231.865 147.272L230.969 148.872C230.223 148.36 229.476 148.104 228.729 148.104C227.993 148.104 227.625 148.307 227.625 148.712C227.625 148.936 227.743 149.112 227.977 149.24C228.212 149.368 228.601 149.517 229.145 149.688C229.689 149.859 230.073 149.992 230.297 150.088C230.532 150.173 230.809 150.312 231.129 150.504C231.727 150.867 232.025 151.475 232.025 152.328ZM241.414 153.752C240.443 154.669 239.302 155.128 237.99 155.128C236.689 155.128 235.611 154.728 234.758 153.928C233.905 153.117 233.478 152.035 233.478 150.68C233.478 149.325 233.91 148.248 234.774 147.448C235.649 146.648 236.678 146.248 237.862 146.248C239.046 146.248 240.049 146.605 240.87 147.32C241.702 148.035 242.118 149.016 242.118 150.264V151.544H235.846C235.921 152.013 236.166 152.397 236.582 152.696C236.998 152.995 237.467 153.144 237.99 153.144C238.833 153.144 239.526 152.861 240.07 152.296L241.414 153.752ZM239.686 149.832C239.633 149.32 239.441 148.925 239.11 148.648C238.779 148.371 238.374 148.232 237.894 148.232C237.425 148.232 236.993 148.376 236.598 148.664C236.203 148.952 235.974 149.341 235.91 149.832H239.686ZM250.429 152.328C250.429 153.171 250.114 153.848 249.485 154.36C248.866 154.872 248.077 155.128 247.117 155.128C246.477 155.128 245.81 155.016 245.117 154.792C244.423 154.557 243.799 154.216 243.245 153.768L244.301 152.264C245.197 152.957 246.151 153.304 247.165 153.304C247.474 153.304 247.719 153.245 247.901 153.128C248.082 153 248.173 152.835 248.173 152.632C248.173 152.429 248.045 152.243 247.789 152.072C247.543 151.901 247.181 151.741 246.701 151.592C246.231 151.443 245.869 151.315 245.613 151.208C245.367 151.101 245.085 150.947 244.765 150.744C244.114 150.339 243.789 149.741 243.789 148.952C243.789 148.152 244.109 147.501 244.749 147C245.389 146.499 246.215 146.248 247.229 146.248C248.242 146.248 249.255 146.589 250.269 147.272L249.373 148.872C248.626 148.36 247.879 148.104 247.133 148.104C246.397 148.104 246.029 148.307 246.029 148.712C246.029 148.936 246.146 149.112 246.381 149.24C246.615 149.368 247.005 149.517 247.549 149.688C248.093 149.859 248.477 149.992 248.701 150.088C248.935 150.173 249.213 150.312 249.533 150.504C250.13 150.867 250.429 151.475 250.429 152.328Z" fill="#252B42"/>
<rect x="159" y="181" width="50" height="2" fill="#E74040"/>
<path d="M144.375 209.726V218H142.723V209.726H139.755V208.214H147.343V209.726H144.375ZM150.604 213.968V218H149.036V207.626H150.604V211.91C150.828 211.453 151.164 211.093 151.612 210.832C152.069 210.571 152.559 210.44 153.082 210.44C153.922 210.44 154.598 210.697 155.112 211.21C155.634 211.723 155.896 212.465 155.896 213.436V218H154.328V213.912C154.328 212.54 153.758 211.854 152.62 211.854C152.078 211.854 151.607 212.036 151.206 212.4C150.804 212.755 150.604 213.277 150.604 213.968ZM165.217 214.962H159.379C159.416 215.503 159.663 215.942 160.121 216.278C160.578 216.605 161.101 216.768 161.689 216.768C162.622 216.768 163.331 216.474 163.817 215.886L164.713 216.866C163.91 217.697 162.865 218.112 161.577 218.112C160.531 218.112 159.64 217.767 158.903 217.076C158.175 216.376 157.811 215.443 157.811 214.276C157.811 213.1 158.184 212.167 158.931 211.476C159.677 210.785 160.555 210.44 161.563 210.44C162.58 210.44 163.443 210.748 164.153 211.364C164.862 211.971 165.217 212.811 165.217 213.884V214.962ZM159.379 213.73H163.649C163.649 213.105 163.453 212.624 163.061 212.288C162.669 211.952 162.183 211.784 161.605 211.784C161.035 211.784 160.522 211.961 160.065 212.316C159.607 212.661 159.379 213.133 159.379 213.73ZM178.071 210.552V217.048C178.071 218.364 177.711 219.349 176.993 220.002C176.283 220.665 175.369 220.996 174.249 220.996C173.129 220.996 172.116 220.646 171.211 219.946L171.953 218.756C172.681 219.307 173.413 219.582 174.151 219.582C174.897 219.582 175.485 219.391 175.915 219.008C176.353 218.625 176.573 218.014 176.573 217.174V216.222C176.339 216.661 176.003 217.011 175.565 217.272C175.135 217.533 174.65 217.664 174.109 217.664C173.119 217.664 172.307 217.319 171.673 216.628C171.038 215.937 170.721 215.079 170.721 214.052C170.721 213.025 171.038 212.167 171.673 211.476C172.307 210.785 173.115 210.44 174.095 210.44C175.084 210.44 175.887 210.846 176.503 211.658V210.552H178.071ZM172.261 213.996C172.261 214.603 172.447 215.13 172.821 215.578C173.203 216.017 173.712 216.236 174.347 216.236C174.991 216.236 175.509 216.021 175.901 215.592C176.302 215.163 176.503 214.631 176.503 213.996C176.503 213.352 176.302 212.811 175.901 212.372C175.499 211.924 174.981 211.7 174.347 211.7C173.712 211.7 173.203 211.929 172.821 212.386C172.447 212.843 172.261 213.38 172.261 213.996ZM184.449 212.022C183.674 212.022 183.091 212.274 182.699 212.778C182.307 213.282 182.111 213.959 182.111 214.808V218H180.543V210.552H182.111V212.05C182.363 211.583 182.703 211.201 183.133 210.902C183.571 210.603 184.033 210.449 184.519 210.44L184.533 212.022C184.505 212.022 184.477 212.022 184.449 212.022ZM192.273 218H190.845V217.006C190.229 217.743 189.403 218.112 188.367 218.112C187.592 218.112 186.948 217.893 186.435 217.454C185.931 217.015 185.679 216.432 185.679 215.704C185.679 214.967 185.95 214.416 186.491 214.052C187.032 213.688 187.765 213.506 188.689 213.506H190.719V213.226C190.719 212.237 190.168 211.742 189.067 211.742C188.376 211.742 187.658 211.994 186.911 212.498L186.211 211.518C187.116 210.799 188.143 210.44 189.291 210.44C190.168 210.44 190.882 210.664 191.433 211.112C191.993 211.551 192.273 212.246 192.273 213.198V218ZM190.705 215.228V214.598H188.941C187.812 214.598 187.247 214.953 187.247 215.662C187.247 216.026 187.387 216.306 187.667 216.502C187.947 216.689 188.334 216.782 188.829 216.782C189.333 216.782 189.772 216.642 190.145 216.362C190.518 216.082 190.705 215.704 190.705 215.228ZM197.694 218.112C196.751 218.112 195.93 217.757 195.23 217.048C194.53 216.339 194.18 215.405 194.18 214.248C194.18 213.091 194.539 212.167 195.258 211.476C195.976 210.785 196.83 210.44 197.82 210.44C198.818 210.44 199.621 210.86 200.228 211.7V207.612H201.796V218H200.228V216.88C199.649 217.701 198.804 218.112 197.694 218.112ZM195.748 214.318C195.748 215.027 195.976 215.606 196.434 216.054C196.891 216.502 197.428 216.726 198.044 216.726C198.66 216.726 199.182 216.502 199.612 216.054C200.041 215.597 200.256 215.013 200.256 214.304C200.256 213.595 200.041 213.002 199.612 212.526C199.182 212.05 198.655 211.812 198.03 211.812C197.404 211.812 196.868 212.05 196.42 212.526C195.972 213.002 195.748 213.599 195.748 214.318ZM209.47 214.584V210.552H211.038V218H209.47V216.642C209.218 217.099 208.868 217.459 208.42 217.72C207.981 217.981 207.505 218.112 206.992 218.112C206.152 218.112 205.471 217.855 204.948 217.342C204.435 216.829 204.178 216.087 204.178 215.116V210.552H205.746V214.64C205.746 216.012 206.315 216.698 207.454 216.698C207.995 216.698 208.467 216.521 208.868 216.166C209.269 215.802 209.47 215.275 209.47 214.584ZM219.547 218H218.119V217.006C217.503 217.743 216.677 218.112 215.641 218.112C214.866 218.112 214.222 217.893 213.709 217.454C213.205 217.015 212.953 216.432 212.953 215.704C212.953 214.967 213.223 214.416 213.765 214.052C214.306 213.688 215.039 213.506 215.963 213.506H217.993V213.226C217.993 212.237 217.442 211.742 216.341 211.742C215.65 211.742 214.931 211.994 214.185 212.498L213.485 211.518C214.39 210.799 215.417 210.44 216.565 210.44C217.442 210.44 218.156 210.664 218.707 211.112C219.267 211.551 219.547 212.246 219.547 213.198V218ZM217.979 215.228V214.598H216.215C215.085 214.598 214.521 214.953 214.521 215.662C214.521 216.026 214.661 216.306 214.941 216.502C215.221 216.689 215.608 216.782 216.103 216.782C216.607 216.782 217.045 216.642 217.419 216.362C217.792 216.082 217.979 215.704 217.979 215.228ZM223.498 218H221.93V207.612H223.498V218ZM124.141 238H122.713V237.006C122.097 237.743 121.271 238.112 120.235 238.112C119.461 238.112 118.817 237.893 118.303 237.454C117.799 237.015 117.547 236.432 117.547 235.704C117.547 234.967 117.818 234.416 118.359 234.052C118.901 233.688 119.633 233.506 120.557 233.506H122.587V233.226C122.587 232.237 122.037 231.742 120.935 231.742C120.245 231.742 119.526 231.994 118.779 232.498L118.079 231.518C118.985 230.799 120.011 230.44 121.159 230.44C122.037 230.44 122.751 230.664 123.301 231.112C123.861 231.551 124.141 232.246 124.141 233.198V238ZM122.573 235.228V234.598H120.809C119.68 234.598 119.115 234.953 119.115 235.662C119.115 236.026 119.255 236.306 119.535 236.502C119.815 236.689 120.203 236.782 120.697 236.782C121.201 236.782 121.64 236.642 122.013 236.362C122.387 236.082 122.573 235.704 122.573 235.228ZM129.828 238.112C128.792 238.112 127.901 237.762 127.154 237.062C126.407 236.353 126.034 235.429 126.034 234.29C126.034 233.151 126.421 232.227 127.196 231.518C127.98 230.799 128.932 230.44 130.052 230.44C131.172 230.44 132.119 230.827 132.894 231.602L131.97 232.736C131.326 232.176 130.677 231.896 130.024 231.896C129.371 231.896 128.801 232.115 128.316 232.554C127.84 232.983 127.602 233.543 127.602 234.234C127.602 234.915 127.84 235.494 128.316 235.97C128.792 236.446 129.375 236.684 130.066 236.684C130.766 236.684 131.424 236.367 132.04 235.732L132.964 236.74C132.059 237.655 131.013 238.112 129.828 238.112ZM138.094 238.112C137.058 238.112 136.167 237.762 135.42 237.062C134.674 236.353 134.3 235.429 134.3 234.29C134.3 233.151 134.688 232.227 135.462 231.518C136.246 230.799 137.198 230.44 138.318 230.44C139.438 230.44 140.386 230.827 141.16 231.602L140.236 232.736C139.592 232.176 138.944 231.896 138.29 231.896C137.637 231.896 137.068 232.115 136.582 232.554C136.106 232.983 135.868 233.543 135.868 234.234C135.868 234.915 136.106 235.494 136.582 235.97C137.058 236.446 137.642 236.684 138.332 236.684C139.032 236.684 139.69 236.367 140.306 235.732L141.23 236.74C140.325 237.655 139.28 238.112 138.094 238.112ZM148.265 234.584V230.552H149.833V238H148.265V236.642C148.013 237.099 147.663 237.459 147.215 237.72C146.776 237.981 146.3 238.112 145.787 238.112C144.947 238.112 144.266 237.855 143.743 237.342C143.23 236.829 142.973 236.087 142.973 235.116V230.552H144.541V234.64C144.541 236.012 145.11 236.698 146.249 236.698C146.79 236.698 147.262 236.521 147.663 236.166C148.064 235.802 148.265 235.275 148.265 234.584ZM153.876 233.968V238H152.308V230.552H153.876V231.91C154.1 231.453 154.436 231.093 154.884 230.832C155.341 230.571 155.831 230.44 156.354 230.44C157.53 230.44 158.328 230.925 158.748 231.896C159.485 230.925 160.404 230.44 161.506 230.44C162.346 230.44 163.022 230.697 163.536 231.21C164.058 231.723 164.32 232.465 164.32 233.436V238H162.752V233.912C162.752 232.54 162.182 231.854 161.044 231.854C160.512 231.854 160.045 232.027 159.644 232.372C159.252 232.708 159.046 233.203 159.028 233.856V238H157.46V233.912C157.46 233.203 157.334 232.685 157.082 232.358C156.83 232.022 156.433 231.854 155.892 231.854C155.35 231.854 154.879 232.036 154.478 232.4C154.076 232.755 153.876 233.277 153.876 233.968ZM171.907 234.584V230.552H173.475V238H171.907V236.642C171.655 237.099 171.305 237.459 170.857 237.72C170.418 237.981 169.942 238.112 169.429 238.112C168.589 238.112 167.908 237.855 167.385 237.342C166.872 236.829 166.615 236.087 166.615 235.116V230.552H168.183V234.64C168.183 236.012 168.752 236.698 169.891 236.698C170.432 236.698 170.904 236.521 171.305 236.166C171.706 235.802 171.907 235.275 171.907 234.584ZM177.518 238H175.95V227.612H177.518V238ZM186.026 238H184.598V237.006C183.982 237.743 183.156 238.112 182.12 238.112C181.345 238.112 180.701 237.893 180.188 237.454C179.684 237.015 179.432 236.432 179.432 235.704C179.432 234.967 179.702 234.416 180.244 234.052C180.785 233.688 181.518 233.506 182.442 233.506H184.472V233.226C184.472 232.237 183.921 231.742 182.82 231.742C182.129 231.742 181.41 231.994 180.664 232.498L179.964 231.518C180.869 230.799 181.896 230.44 183.044 230.44C183.921 230.44 184.635 230.664 185.186 231.112C185.746 231.551 186.026 232.246 186.026 233.198V238ZM184.458 235.228V234.598H182.694C181.564 234.598 181 234.953 181 235.662C181 236.026 181.14 236.306 181.42 236.502C181.7 236.689 182.087 236.782 182.582 236.782C183.086 236.782 183.524 236.642 183.898 236.362C184.271 236.082 184.458 235.704 184.458 235.228ZM190.258 231.812V235.592C190.258 235.947 190.352 236.231 190.538 236.446C190.725 236.651 190.986 236.754 191.322 236.754C191.658 236.754 191.98 236.591 192.288 236.264L192.932 237.37C192.382 237.865 191.77 238.112 191.098 238.112C190.436 238.112 189.866 237.883 189.39 237.426C188.924 236.959 188.69 236.334 188.69 235.55V231.812H187.752V230.552H188.69V228.214H190.258V230.552H192.218V231.812H190.258ZM195.946 238H194.378V230.552H195.946V238ZM194.476 229.068C194.28 228.872 194.182 228.639 194.182 228.368C194.182 228.097 194.28 227.864 194.476 227.668C194.672 227.472 194.905 227.374 195.176 227.374C195.447 227.374 195.68 227.472 195.876 227.668C196.072 227.864 196.17 228.097 196.17 228.368C196.17 228.639 196.072 228.872 195.876 229.068C195.68 229.264 195.447 229.362 195.176 229.362C194.905 229.362 194.672 229.264 194.476 229.068ZM200.156 236.04C200.604 236.488 201.168 236.712 201.85 236.712C202.531 236.712 203.091 236.488 203.53 236.04C203.978 235.583 204.202 234.995 204.202 234.276C204.202 233.557 203.978 232.974 203.53 232.526C203.091 232.069 202.531 231.84 201.85 231.84C201.168 231.84 200.604 232.069 200.156 232.526C199.717 232.974 199.498 233.557 199.498 234.276C199.498 234.995 199.717 235.583 200.156 236.04ZM204.65 237.006C203.903 237.743 202.97 238.112 201.85 238.112C200.73 238.112 199.796 237.743 199.05 237.006C198.303 236.259 197.93 235.349 197.93 234.276C197.93 233.203 198.303 232.297 199.05 231.56C199.796 230.813 200.73 230.44 201.85 230.44C202.97 230.44 203.903 230.813 204.65 231.56C205.396 232.297 205.77 233.203 205.77 234.276C205.77 235.349 205.396 236.259 204.65 237.006ZM209.321 233.968V238H207.753V230.552H209.321V231.91C209.573 231.453 209.918 231.093 210.357 230.832C210.805 230.571 211.285 230.44 211.799 230.44C212.639 230.44 213.315 230.697 213.829 231.21C214.351 231.723 214.613 232.465 214.613 233.436V238H213.045V233.912C213.045 232.54 212.475 231.854 211.337 231.854C210.795 231.854 210.324 232.036 209.923 232.4C209.521 232.755 209.321 233.277 209.321 233.968ZM227.079 238H225.651V237.006C225.035 237.743 224.209 238.112 223.173 238.112C222.398 238.112 221.754 237.893 221.241 237.454C220.737 237.015 220.485 236.432 220.485 235.704C220.485 234.967 220.756 234.416 221.297 234.052C221.838 233.688 222.571 233.506 223.495 233.506H225.525V233.226C225.525 232.237 224.974 231.742 223.873 231.742C223.182 231.742 222.464 231.994 221.717 232.498L221.017 231.518C221.922 230.799 222.949 230.44 224.097 230.44C224.974 230.44 225.688 230.664 226.239 231.112C226.799 231.551 227.079 232.246 227.079 233.198V238ZM225.511 235.228V234.598H223.747C222.618 234.598 222.053 234.953 222.053 235.662C222.053 236.026 222.193 236.306 222.473 236.502C222.753 236.689 223.14 236.782 223.635 236.782C224.139 236.782 224.578 236.642 224.951 236.362C225.324 236.082 225.511 235.704 225.511 235.228ZM231.03 233.968V238H229.462V230.552H231.03V231.91C231.282 231.453 231.627 231.093 232.066 230.832C232.514 230.571 232.995 230.44 233.508 230.44C234.348 230.44 235.025 230.697 235.538 231.21C236.061 231.723 236.322 232.465 236.322 233.436V238H234.754V233.912C234.754 232.54 234.185 231.854 233.046 231.854C232.505 231.854 232.033 232.036 231.632 232.4C231.231 232.755 231.03 233.277 231.03 233.968ZM241.751 238.112C240.808 238.112 239.987 237.757 239.287 237.048C238.587 236.339 238.237 235.405 238.237 234.248C238.237 233.091 238.596 232.167 239.315 231.476C240.033 230.785 240.887 230.44 241.877 230.44C242.875 230.44 243.678 230.86 244.285 231.7V227.612H245.853V238H244.285V236.88C243.706 237.701 242.861 238.112 241.751 238.112ZM239.805 234.318C239.805 235.027 240.033 235.606 240.491 236.054C240.948 236.502 241.485 236.726 242.101 236.726C242.717 236.726 243.239 236.502 243.669 236.054C244.098 235.597 244.313 235.013 244.313 234.304C244.313 233.595 244.098 233.002 243.669 232.526C243.239 232.05 242.712 231.812 242.087 231.812C241.461 231.812 240.925 232.05 240.477 232.526C240.029 233.002 239.805 233.599 239.805 234.318ZM145.497 255.774C145.497 256.483 145.24 257.053 144.727 257.482C144.214 257.902 143.556 258.112 142.753 258.112C142.212 258.112 141.647 258.014 141.059 257.818C140.48 257.622 139.967 257.347 139.519 256.992L140.275 255.774C141.143 256.427 141.983 256.754 142.795 256.754C143.15 256.754 143.43 256.675 143.635 256.516C143.84 256.348 143.943 256.138 143.943 255.886C143.943 255.513 143.448 255.177 142.459 254.878C142.384 254.85 142.328 254.831 142.291 254.822C140.742 254.402 139.967 253.702 139.967 252.722C139.967 252.031 140.233 251.481 140.765 251.07C141.306 250.65 142.006 250.44 142.865 250.44C143.724 250.44 144.536 250.692 145.301 251.196L144.713 252.358C144.106 251.957 143.448 251.756 142.739 251.756C142.366 251.756 142.062 251.826 141.829 251.966C141.596 252.097 141.479 252.297 141.479 252.568C141.479 252.811 141.6 252.988 141.843 253.1C142.011 253.184 142.244 253.263 142.543 253.338C142.851 253.413 143.122 253.487 143.355 253.562C143.588 253.637 143.812 253.721 144.027 253.814C144.251 253.907 144.489 254.038 144.741 254.206C145.245 254.542 145.497 255.065 145.497 255.774ZM149.041 253.968V258H147.473V250.552H149.041V251.91C149.265 251.453 149.601 251.093 150.049 250.832C150.506 250.571 150.996 250.44 151.519 250.44C152.695 250.44 153.493 250.925 153.913 251.896C154.65 250.925 155.57 250.44 156.671 250.44C157.511 250.44 158.188 250.697 158.701 251.21C159.224 251.723 159.485 252.465 159.485 253.436V258H157.917V253.912C157.917 252.54 157.348 251.854 156.209 251.854C155.677 251.854 155.21 252.027 154.809 252.372C154.417 252.708 154.212 253.203 154.193 253.856V258H152.625V253.912C152.625 253.203 152.499 252.685 152.247 252.358C151.995 252.022 151.598 251.854 151.057 251.854C150.516 251.854 150.044 252.036 149.643 252.4C149.242 252.755 149.041 253.277 149.041 253.968ZM167.898 258H166.47V257.006C165.854 257.743 165.028 258.112 163.992 258.112C163.218 258.112 162.574 257.893 162.06 257.454C161.556 257.015 161.304 256.432 161.304 255.704C161.304 254.967 161.575 254.416 162.116 254.052C162.658 253.688 163.39 253.506 164.314 253.506H166.344V253.226C166.344 252.237 165.794 251.742 164.692 251.742C164.002 251.742 163.283 251.994 162.536 252.498L161.836 251.518C162.742 250.799 163.768 250.44 164.916 250.44C165.794 250.44 166.508 250.664 167.058 251.112C167.618 251.551 167.898 252.246 167.898 253.198V258ZM166.33 255.228V254.598H164.566C163.437 254.598 162.872 254.953 162.872 255.662C162.872 256.026 163.012 256.306 163.292 256.502C163.572 256.689 163.96 256.782 164.454 256.782C164.958 256.782 165.397 256.642 165.77 256.362C166.144 256.082 166.33 255.704 166.33 255.228ZM171.849 258H170.281V247.612H171.849V258ZM175.891 258H174.323V247.612H175.891V258ZM178.239 254.556V253.086H182.887V254.556H178.239ZM190.529 255.774C190.529 256.483 190.272 257.053 189.759 257.482C189.246 257.902 188.588 258.112 187.785 258.112C187.244 258.112 186.679 258.014 186.091 257.818C185.512 257.622 184.999 257.347 184.551 256.992L185.307 255.774C186.175 256.427 187.015 256.754 187.827 256.754C188.182 256.754 188.462 256.675 188.667 256.516C188.872 256.348 188.975 256.138 188.975 255.886C188.975 255.513 188.48 255.177 187.491 254.878C187.416 254.85 187.36 254.831 187.323 254.822C185.774 254.402 184.999 253.702 184.999 252.722C184.999 252.031 185.265 251.481 185.797 251.07C186.338 250.65 187.038 250.44 187.897 250.44C188.756 250.44 189.568 250.692 190.333 251.196L189.745 252.358C189.138 251.957 188.48 251.756 187.771 251.756C187.398 251.756 187.094 251.826 186.861 251.966C186.628 252.097 186.511 252.297 186.511 252.568C186.511 252.811 186.632 252.988 186.875 253.1C187.043 253.184 187.276 253.263 187.575 253.338C187.883 253.413 188.154 253.487 188.387 253.562C188.62 253.637 188.844 253.721 189.059 253.814C189.283 253.907 189.521 254.038 189.773 254.206C190.277 254.542 190.529 255.065 190.529 255.774ZM195.809 258.112C194.773 258.112 193.882 257.762 193.135 257.062C192.388 256.353 192.015 255.429 192.015 254.29C192.015 253.151 192.402 252.227 193.177 251.518C193.961 250.799 194.913 250.44 196.033 250.44C197.153 250.44 198.1 250.827 198.875 251.602L197.951 252.736C197.307 252.176 196.658 251.896 196.005 251.896C195.352 251.896 194.782 252.115 194.297 252.554C193.821 252.983 193.583 253.543 193.583 254.234C193.583 254.915 193.821 255.494 194.297 255.97C194.773 256.446 195.356 256.684 196.047 256.684C196.747 256.684 197.405 256.367 198.021 255.732L198.945 256.74C198.04 257.655 196.994 258.112 195.809 258.112ZM206.751 258H205.323V257.006C204.707 257.743 203.881 258.112 202.845 258.112C202.07 258.112 201.426 257.893 200.913 257.454C200.409 257.015 200.157 256.432 200.157 255.704C200.157 254.967 200.427 254.416 200.969 254.052C201.51 253.688 202.243 253.506 203.167 253.506H205.197V253.226C205.197 252.237 204.646 251.742 203.545 251.742C202.854 251.742 202.135 251.994 201.389 252.498L200.689 251.518C201.594 250.799 202.621 250.44 203.769 250.44C204.646 250.44 205.36 250.664 205.911 251.112C206.471 251.551 206.751 252.246 206.751 253.198V258ZM205.183 255.228V254.598H203.419C202.289 254.598 201.725 254.953 201.725 255.662C201.725 256.026 201.865 256.306 202.145 256.502C202.425 256.689 202.812 256.782 203.307 256.782C203.811 256.782 204.249 256.642 204.623 256.362C204.996 256.082 205.183 255.704 205.183 255.228ZM210.701 258H209.133V247.612H210.701V258ZM220.105 254.962H214.267C214.305 255.503 214.552 255.942 215.009 256.278C215.467 256.605 215.989 256.768 216.577 256.768C217.511 256.768 218.22 256.474 218.705 255.886L219.601 256.866C218.799 257.697 217.753 258.112 216.465 258.112C215.42 258.112 214.529 257.767 213.791 257.076C213.063 256.376 212.699 255.443 212.699 254.276C212.699 253.1 213.073 252.167 213.819 251.476C214.566 250.785 215.443 250.44 216.451 250.44C217.469 250.44 218.332 250.748 219.041 251.364C219.751 251.971 220.105 252.811 220.105 253.884V254.962ZM214.267 253.73H218.537C218.537 253.105 218.341 252.624 217.949 252.288C217.557 251.952 217.072 251.784 216.493 251.784C215.924 251.784 215.411 251.961 214.953 252.316C214.496 252.661 214.267 253.133 214.267 253.73ZM222.114 257.804C221.918 257.599 221.82 257.351 221.82 257.062C221.82 256.773 221.918 256.53 222.114 256.334C222.319 256.129 222.566 256.026 222.856 256.026C223.145 256.026 223.392 256.129 223.598 256.334C223.803 256.53 223.906 256.773 223.906 257.062C223.906 257.351 223.803 257.599 223.598 257.804C223.392 258.009 223.145 258.112 222.856 258.112C222.566 258.112 222.319 258.009 222.114 257.804ZM226.237 257.804C226.041 257.599 225.943 257.351 225.943 257.062C225.943 256.773 226.041 256.53 226.237 256.334C226.443 256.129 226.69 256.026 226.979 256.026C227.269 256.026 227.516 256.129 227.721 256.334C227.927 256.53 228.029 256.773 228.029 257.062C228.029 257.351 227.927 257.599 227.721 257.804C227.516 258.009 227.269 258.112 226.979 258.112C226.69 258.112 226.443 258.009 226.237 257.804Z" fill="#737373"/>
</g>
<defs>
<filter id="filter0_d_2_87" x="0.5" y="0" width="367" height="330" filterUnits="userSpaceOnUse" color-interpolation-filters="sRGB">
<feFlood flood-opacity="0" result="BackgroundImageFix"/>
<feColorMatrix in="SourceAlpha" type="matrix" values="0 0 0 0 0 0 0 0 0 0 0 0 0 0 0 0 0 0 127 0" result="hardAlpha"/>
<feOffset dy="13"/>
<feGaussianBlur stdDeviation="9.5"/>
<feColorMatrix type="matrix" values="0 0 0 0 0 0 0 0 0 0 0 0 0 0 0 0 0 0 0.07 0"/>
<feBlend mode="normal" in2="BackgroundImageFix" result="effect1_dropShadow_2_87"/>
<feBlend mode="normal" in="SourceGraphic" in2="effect1_dropShadow_2_87" result="shape"/>
</filter>
</defs>
</svg>
