<svg width="367" height="330" viewBox="0 0 367 330" fill="none" xmlns="http://www.w3.org/2000/svg">
<g filter="url(#filter0_d_2_80)">
<rect width="328" height="292" transform="translate(19.5 6)" fill="white"/>
<path d="M148.5 51C148.5 45.4772 152.977 41 158.5 41H208.5C214.023 41 218.5 45.4772 218.5 51V107C218.5 112.523 214.023 117 208.5 117H158.5C152.977 117 148.5 112.523 148.5 107V51Z" fill="#E74040"/>
<path d="M170.167 74.2003C170.167 72.2674 170.944 70.4155 172.323 69.0614C173.702 67.7072 175.568 66.9645 177.5 67.0003C179.79 66.9881 181.975 67.9592 183.5 69.6669C185.026 67.9592 187.211 66.9881 189.5 67.0003C191.433 66.9645 193.299 67.7072 194.678 69.0614C196.057 70.4155 196.834 72.2674 196.834 74.2003C196.834 81.3416 188.328 86.7336 183.5 91.0003C178.683 86.6976 170.167 81.3469 170.167 74.2003Z" fill="white"/>
<path d="M120.375 148.12V151.976C120.375 152.307 120.46 152.568 120.631 152.76C120.802 152.941 121.004 153.032 121.239 153.032C121.687 153.032 122.066 152.829 122.375 152.424L123.271 154.104C122.524 154.787 121.735 155.128 120.903 155.128C120.082 155.128 119.383 154.856 118.807 154.312C118.242 153.768 117.959 153.027 117.959 152.088V148.12H116.951V146.392H117.959V143.816H120.375V146.392H122.455V148.12H120.375ZM129.186 148.504C128.471 148.504 127.938 148.76 127.586 149.272C127.234 149.773 127.058 150.44 127.058 151.272V155H124.658V146.392H127.058V147.528C127.367 147.176 127.751 146.877 128.21 146.632C128.679 146.387 129.154 146.259 129.634 146.248L129.65 148.504H129.186ZM138.57 155H136.314V153.96C135.695 154.739 134.927 155.128 134.01 155.128C133.103 155.128 132.341 154.867 131.722 154.344C131.103 153.811 130.794 153.107 130.794 152.232C130.794 151.347 131.114 150.685 131.754 150.248C132.394 149.811 133.269 149.592 134.378 149.592H136.17V149.544C136.17 148.627 135.685 148.168 134.714 148.168C134.298 148.168 133.855 148.253 133.386 148.424C132.927 148.584 132.538 148.787 132.218 149.032L131.146 147.48C132.277 146.659 133.567 146.248 135.018 146.248C136.063 146.248 136.917 146.509 137.578 147.032C138.239 147.555 138.57 148.381 138.57 149.512V155ZM136.154 151.72V151.304H134.65C133.69 151.304 133.21 151.603 133.21 152.2C133.21 152.509 133.322 152.749 133.546 152.92C133.781 153.08 134.111 153.16 134.538 153.16C134.965 153.16 135.338 153.032 135.658 152.776C135.989 152.509 136.154 152.157 136.154 151.72ZM143.258 155H140.858V146.392H143.258V155ZM141.05 145.304C140.783 145.027 140.65 144.691 140.65 144.296C140.65 143.901 140.783 143.571 141.05 143.304C141.327 143.027 141.663 142.888 142.058 142.888C142.453 142.888 142.783 143.027 143.05 143.304C143.327 143.571 143.466 143.901 143.466 144.296C143.466 144.691 143.327 145.027 143.05 145.304C142.783 145.571 142.453 145.704 142.058 145.704C141.663 145.704 141.327 145.571 141.05 145.304ZM148.03 150.2V155H145.63V146.392H148.03V147.352C148.755 146.616 149.571 146.248 150.478 146.248C151.384 146.248 152.142 146.568 152.75 147.208C153.368 147.848 153.678 148.701 153.678 149.768V155H151.278V150.136C151.278 148.813 150.792 148.152 149.822 148.152C149.342 148.152 148.92 148.328 148.558 148.68C148.206 149.021 148.03 149.528 148.03 150.2ZM158.349 155H155.949V146.392H158.349V155ZM156.141 145.304C155.874 145.027 155.741 144.691 155.741 144.296C155.741 143.901 155.874 143.571 156.141 143.304C156.418 143.027 156.754 142.888 157.149 142.888C157.543 142.888 157.874 143.027 158.141 143.304C158.418 143.571 158.557 143.901 158.557 144.296C158.557 144.691 158.418 145.027 158.141 145.304C157.874 145.571 157.543 145.704 157.149 145.704C156.754 145.704 156.418 145.571 156.141 145.304ZM163.12 150.2V155H160.72V146.392H163.12V147.352C163.846 146.616 164.662 146.248 165.568 146.248C166.475 146.248 167.232 146.568 167.84 147.208C168.459 147.848 168.768 148.701 168.768 149.768V155H166.368V150.136C166.368 148.813 165.883 148.152 164.912 148.152C164.432 148.152 164.011 148.328 163.648 148.68C163.296 149.021 163.12 149.528 163.12 150.2ZM177.071 150.52C177.071 149.827 176.879 149.283 176.495 148.888C176.111 148.493 175.636 148.296 175.071 148.296C174.506 148.296 174.015 148.493 173.599 148.888C173.194 149.283 172.991 149.821 172.991 150.504C172.991 151.187 173.188 151.741 173.583 152.168C173.988 152.584 174.479 152.792 175.055 152.792C175.631 152.792 176.111 152.584 176.495 152.168C176.879 151.752 177.071 151.203 177.071 150.52ZM177.407 153.544C176.65 154.387 175.706 154.808 174.575 154.808C173.455 154.808 172.506 154.429 171.727 153.672C170.959 152.904 170.575 151.885 170.575 150.616C170.575 149.336 170.97 148.291 171.759 147.48C172.559 146.659 173.471 146.248 174.495 146.248C175.519 146.248 176.367 146.669 177.039 147.512V146.376H179.439V153.88C179.439 154.648 179.306 155.331 179.039 155.928C178.772 156.525 178.415 156.995 177.967 157.336C177.082 158.04 176.036 158.392 174.831 158.392C174.191 158.392 173.535 158.285 172.863 158.072C172.202 157.869 171.62 157.576 171.119 157.192L172.047 155.384C172.836 155.981 173.668 156.28 174.543 156.28C175.428 156.28 176.127 156.061 176.639 155.624C177.151 155.187 177.407 154.493 177.407 153.544ZM191.506 152.792C192.732 152.792 193.735 152.307 194.514 151.336L196.114 152.984C194.844 154.413 193.346 155.128 191.618 155.128C189.9 155.128 188.482 154.584 187.362 153.496C186.252 152.408 185.698 151.037 185.698 149.384C185.698 147.72 186.263 146.333 187.394 145.224C188.535 144.115 189.927 143.56 191.57 143.56C193.404 143.56 194.94 144.259 196.178 145.656L194.626 147.416C193.836 146.435 192.855 145.944 191.682 145.944C190.743 145.944 189.938 146.253 189.266 146.872C188.604 147.48 188.274 148.307 188.274 149.352C188.274 150.387 188.588 151.219 189.218 151.848C189.847 152.477 190.61 152.792 191.506 152.792ZM199.525 150.696C199.525 151.4 199.722 151.976 200.117 152.424C200.522 152.861 201.034 153.08 201.653 153.08C202.282 153.08 202.794 152.861 203.189 152.424C203.594 151.976 203.797 151.4 203.797 150.696C203.797 149.992 203.594 149.416 203.189 148.968C202.794 148.52 202.282 148.296 201.653 148.296C201.034 148.296 200.522 148.52 200.117 148.968C199.722 149.416 199.525 149.992 199.525 150.696ZM206.213 150.696C206.213 151.944 205.781 152.995 204.917 153.848C204.053 154.701 202.965 155.128 201.653 155.128C200.351 155.128 199.269 154.701 198.405 153.848C197.541 152.995 197.109 151.944 197.109 150.696C197.109 149.448 197.541 148.397 198.405 147.544C199.269 146.68 200.351 146.248 201.653 146.248C202.965 146.248 204.053 146.68 204.917 147.544C205.781 148.397 206.213 149.448 206.213 150.696ZM213.647 151.032V146.392H216.063V155H213.647V153.864C213.05 154.707 212.277 155.128 211.327 155.128C210.389 155.128 209.599 154.835 208.959 154.248C208.319 153.651 207.999 152.771 207.999 151.608V146.392H210.415V151.08C210.415 152.403 210.901 153.064 211.871 153.064C212.351 153.064 212.767 152.893 213.119 152.552C213.471 152.2 213.647 151.693 213.647 151.032ZM222.958 148.504C222.243 148.504 221.71 148.76 221.358 149.272C221.006 149.773 220.83 150.44 220.83 151.272V155H218.43V146.392H220.83V147.528C221.139 147.176 221.523 146.877 221.982 146.632C222.451 146.387 222.926 146.259 223.406 146.248L223.422 148.504H222.958ZM231.525 152.328C231.525 153.171 231.211 153.848 230.581 154.36C229.963 154.872 229.173 155.128 228.213 155.128C227.573 155.128 226.907 155.016 226.213 154.792C225.52 154.557 224.896 154.216 224.341 153.768L225.397 152.264C226.293 152.957 227.248 153.304 228.261 153.304C228.571 153.304 228.816 153.245 228.997 153.128C229.179 153 229.269 152.835 229.269 152.632C229.269 152.429 229.141 152.243 228.885 152.072C228.64 151.901 228.277 151.741 227.797 151.592C227.328 151.443 226.965 151.315 226.709 151.208C226.464 151.101 226.181 150.947 225.861 150.744C225.211 150.339 224.885 149.741 224.885 148.952C224.885 148.152 225.205 147.501 225.845 147C226.485 146.499 227.312 146.248 228.325 146.248C229.339 146.248 230.352 146.589 231.365 147.272L230.469 148.872C229.723 148.36 228.976 148.104 228.229 148.104C227.493 148.104 227.125 148.307 227.125 148.712C227.125 148.936 227.243 149.112 227.477 149.24C227.712 149.368 228.101 149.517 228.645 149.688C229.189 149.859 229.573 149.992 229.797 150.088C230.032 150.173 230.309 150.312 230.629 150.504C231.227 150.867 231.525 151.475 231.525 152.328ZM240.914 153.752C239.943 154.669 238.802 155.128 237.49 155.128C236.189 155.128 235.111 154.728 234.258 153.928C233.405 153.117 232.978 152.035 232.978 150.68C232.978 149.325 233.41 148.248 234.274 147.448C235.149 146.648 236.178 146.248 237.362 146.248C238.546 146.248 239.549 146.605 240.37 147.32C241.202 148.035 241.618 149.016 241.618 150.264V151.544H235.346C235.421 152.013 235.666 152.397 236.082 152.696C236.498 152.995 236.967 153.144 237.49 153.144C238.333 153.144 239.026 152.861 239.57 152.296L240.914 153.752ZM239.186 149.832C239.133 149.32 238.941 148.925 238.61 148.648C238.279 148.371 237.874 148.232 237.394 148.232C236.925 148.232 236.493 148.376 236.098 148.664C235.703 148.952 235.474 149.341 235.41 149.832H239.186ZM249.929 152.328C249.929 153.171 249.614 153.848 248.985 154.36C248.366 154.872 247.577 155.128 246.617 155.128C245.977 155.128 245.31 155.016 244.617 154.792C243.923 154.557 243.299 154.216 242.745 153.768L243.801 152.264C244.697 152.957 245.651 153.304 246.665 153.304C246.974 153.304 247.219 153.245 247.401 153.128C247.582 153 247.673 152.835 247.673 152.632C247.673 152.429 247.545 152.243 247.289 152.072C247.043 151.901 246.681 151.741 246.201 151.592C245.731 151.443 245.369 151.315 245.113 151.208C244.867 151.101 244.585 150.947 244.265 150.744C243.614 150.339 243.289 149.741 243.289 148.952C243.289 148.152 243.609 147.501 244.249 147C244.889 146.499 245.715 146.248 246.729 146.248C247.742 146.248 248.755 146.589 249.769 147.272L248.873 148.872C248.126 148.36 247.379 148.104 246.633 148.104C245.897 148.104 245.529 148.307 245.529 148.712C245.529 148.936 245.646 149.112 245.881 149.24C246.115 149.368 246.505 149.517 247.049 149.688C247.593 149.859 247.977 149.992 248.201 150.088C248.435 150.173 248.713 150.312 249.033 150.504C249.63 150.867 249.929 151.475 249.929 152.328Z" fill="#252B42"/>
<rect x="158.5" y="181" width="50" height="2" fill="#E74040"/>
<path d="M143.875 209.726V218H142.223V209.726H139.255V208.214H146.843V209.726H143.875ZM150.104 213.968V218H148.536V207.626H150.104V211.91C150.328 211.453 150.664 211.093 151.112 210.832C151.569 210.571 152.059 210.44 152.582 210.44C153.422 210.44 154.098 210.697 154.612 211.21C155.134 211.723 155.396 212.465 155.396 213.436V218H153.828V213.912C153.828 212.54 153.258 211.854 152.12 211.854C151.578 211.854 151.107 212.036 150.706 212.4C150.304 212.755 150.104 213.277 150.104 213.968ZM164.717 214.962H158.879C158.916 215.503 159.163 215.942 159.621 216.278C160.078 216.605 160.601 216.768 161.189 216.768C162.122 216.768 162.831 216.474 163.317 215.886L164.213 216.866C163.41 217.697 162.365 218.112 161.077 218.112C160.031 218.112 159.14 217.767 158.403 217.076C157.675 216.376 157.311 215.443 157.311 214.276C157.311 213.1 157.684 212.167 158.431 211.476C159.177 210.785 160.055 210.44 161.063 210.44C162.08 210.44 162.943 210.748 163.653 211.364C164.362 211.971 164.717 212.811 164.717 213.884V214.962ZM158.879 213.73H163.149C163.149 213.105 162.953 212.624 162.561 212.288C162.169 211.952 161.683 211.784 161.105 211.784C160.535 211.784 160.022 211.961 159.565 212.316C159.107 212.661 158.879 213.133 158.879 213.73ZM177.571 210.552V217.048C177.571 218.364 177.211 219.349 176.493 220.002C175.783 220.665 174.869 220.996 173.749 220.996C172.629 220.996 171.616 220.646 170.711 219.946L171.453 218.756C172.181 219.307 172.913 219.582 173.651 219.582C174.397 219.582 174.985 219.391 175.415 219.008C175.853 218.625 176.073 218.014 176.073 217.174V216.222C175.839 216.661 175.503 217.011 175.065 217.272C174.635 217.533 174.15 217.664 173.609 217.664C172.619 217.664 171.807 217.319 171.173 216.628C170.538 215.937 170.221 215.079 170.221 214.052C170.221 213.025 170.538 212.167 171.173 211.476C171.807 210.785 172.615 210.44 173.595 210.44C174.584 210.44 175.387 210.846 176.003 211.658V210.552H177.571ZM171.761 213.996C171.761 214.603 171.947 215.13 172.321 215.578C172.703 216.017 173.212 216.236 173.847 216.236C174.491 216.236 175.009 216.021 175.401 215.592C175.802 215.163 176.003 214.631 176.003 213.996C176.003 213.352 175.802 212.811 175.401 212.372C174.999 211.924 174.481 211.7 173.847 211.7C173.212 211.7 172.703 211.929 172.321 212.386C171.947 212.843 171.761 213.38 171.761 213.996ZM183.949 212.022C183.174 212.022 182.591 212.274 182.199 212.778C181.807 213.282 181.611 213.959 181.611 214.808V218H180.043V210.552H181.611V212.05C181.863 211.583 182.203 211.201 182.633 210.902C183.071 210.603 183.533 210.449 184.019 210.44L184.033 212.022C184.005 212.022 183.977 212.022 183.949 212.022ZM191.773 218H190.345V217.006C189.729 217.743 188.903 218.112 187.867 218.112C187.092 218.112 186.448 217.893 185.935 217.454C185.431 217.015 185.179 216.432 185.179 215.704C185.179 214.967 185.45 214.416 185.991 214.052C186.532 213.688 187.265 213.506 188.189 213.506H190.219V213.226C190.219 212.237 189.668 211.742 188.567 211.742C187.876 211.742 187.158 211.994 186.411 212.498L185.711 211.518C186.616 210.799 187.643 210.44 188.791 210.44C189.668 210.44 190.382 210.664 190.933 211.112C191.493 211.551 191.773 212.246 191.773 213.198V218ZM190.205 215.228V214.598H188.441C187.312 214.598 186.747 214.953 186.747 215.662C186.747 216.026 186.887 216.306 187.167 216.502C187.447 216.689 187.834 216.782 188.329 216.782C188.833 216.782 189.272 216.642 189.645 216.362C190.018 216.082 190.205 215.704 190.205 215.228ZM197.194 218.112C196.251 218.112 195.43 217.757 194.73 217.048C194.03 216.339 193.68 215.405 193.68 214.248C193.68 213.091 194.039 212.167 194.758 211.476C195.476 210.785 196.33 210.44 197.32 210.44C198.318 210.44 199.121 210.86 199.728 211.7V207.612H201.296V218H199.728V216.88C199.149 217.701 198.304 218.112 197.194 218.112ZM195.248 214.318C195.248 215.027 195.476 215.606 195.934 216.054C196.391 216.502 196.928 216.726 197.544 216.726C198.16 216.726 198.682 216.502 199.112 216.054C199.541 215.597 199.756 215.013 199.756 214.304C199.756 213.595 199.541 213.002 199.112 212.526C198.682 212.05 198.155 211.812 197.53 211.812C196.904 211.812 196.368 212.05 195.92 212.526C195.472 213.002 195.248 213.599 195.248 214.318ZM208.97 214.584V210.552H210.538V218H208.97V216.642C208.718 217.099 208.368 217.459 207.92 217.72C207.481 217.981 207.005 218.112 206.492 218.112C205.652 218.112 204.971 217.855 204.448 217.342C203.935 216.829 203.678 216.087 203.678 215.116V210.552H205.246V214.64C205.246 216.012 205.815 216.698 206.954 216.698C207.495 216.698 207.967 216.521 208.368 216.166C208.769 215.802 208.97 215.275 208.97 214.584ZM219.047 218H217.619V217.006C217.003 217.743 216.177 218.112 215.141 218.112C214.366 218.112 213.722 217.893 213.209 217.454C212.705 217.015 212.453 216.432 212.453 215.704C212.453 214.967 212.723 214.416 213.265 214.052C213.806 213.688 214.539 213.506 215.463 213.506H217.493V213.226C217.493 212.237 216.942 211.742 215.841 211.742C215.15 211.742 214.431 211.994 213.685 212.498L212.985 211.518C213.89 210.799 214.917 210.44 216.065 210.44C216.942 210.44 217.656 210.664 218.207 211.112C218.767 211.551 219.047 212.246 219.047 213.198V218ZM217.479 215.228V214.598H215.715C214.585 214.598 214.021 214.953 214.021 215.662C214.021 216.026 214.161 216.306 214.441 216.502C214.721 216.689 215.108 216.782 215.603 216.782C216.107 216.782 216.545 216.642 216.919 216.362C217.292 216.082 217.479 215.704 217.479 215.228ZM222.998 218H221.43V207.612H222.998V218ZM123.641 238H122.213V237.006C121.597 237.743 120.771 238.112 119.735 238.112C118.961 238.112 118.317 237.893 117.803 237.454C117.299 237.015 117.047 236.432 117.047 235.704C117.047 234.967 117.318 234.416 117.859 234.052C118.401 233.688 119.133 233.506 120.057 233.506H122.087V233.226C122.087 232.237 121.537 231.742 120.435 231.742C119.745 231.742 119.026 231.994 118.279 232.498L117.579 231.518C118.485 230.799 119.511 230.44 120.659 230.44C121.537 230.44 122.251 230.664 122.801 231.112C123.361 231.551 123.641 232.246 123.641 233.198V238ZM122.073 235.228V234.598H120.309C119.18 234.598 118.615 234.953 118.615 235.662C118.615 236.026 118.755 236.306 119.035 236.502C119.315 236.689 119.703 236.782 120.197 236.782C120.701 236.782 121.14 236.642 121.513 236.362C121.887 236.082 122.073 235.704 122.073 235.228ZM129.328 238.112C128.292 238.112 127.401 237.762 126.654 237.062C125.907 236.353 125.534 235.429 125.534 234.29C125.534 233.151 125.921 232.227 126.696 231.518C127.48 230.799 128.432 230.44 129.552 230.44C130.672 230.44 131.619 230.827 132.394 231.602L131.47 232.736C130.826 232.176 130.177 231.896 129.524 231.896C128.871 231.896 128.301 232.115 127.816 232.554C127.34 232.983 127.102 233.543 127.102 234.234C127.102 234.915 127.34 235.494 127.816 235.97C128.292 236.446 128.875 236.684 129.566 236.684C130.266 236.684 130.924 236.367 131.54 235.732L132.464 236.74C131.559 237.655 130.513 238.112 129.328 238.112ZM137.594 238.112C136.558 238.112 135.667 237.762 134.92 237.062C134.174 236.353 133.8 235.429 133.8 234.29C133.8 233.151 134.188 232.227 134.962 231.518C135.746 230.799 136.698 230.44 137.818 230.44C138.938 230.44 139.886 230.827 140.66 231.602L139.736 232.736C139.092 232.176 138.444 231.896 137.79 231.896C137.137 231.896 136.568 232.115 136.082 232.554C135.606 232.983 135.368 233.543 135.368 234.234C135.368 234.915 135.606 235.494 136.082 235.97C136.558 236.446 137.142 236.684 137.832 236.684C138.532 236.684 139.19 236.367 139.806 235.732L140.73 236.74C139.825 237.655 138.78 238.112 137.594 238.112ZM147.765 234.584V230.552H149.333V238H147.765V236.642C147.513 237.099 147.163 237.459 146.715 237.72C146.276 237.981 145.8 238.112 145.287 238.112C144.447 238.112 143.766 237.855 143.243 237.342C142.73 236.829 142.473 236.087 142.473 235.116V230.552H144.041V234.64C144.041 236.012 144.61 236.698 145.749 236.698C146.29 236.698 146.762 236.521 147.163 236.166C147.564 235.802 147.765 235.275 147.765 234.584ZM153.376 233.968V238H151.808V230.552H153.376V231.91C153.6 231.453 153.936 231.093 154.384 230.832C154.841 230.571 155.331 230.44 155.854 230.44C157.03 230.44 157.828 230.925 158.248 231.896C158.985 230.925 159.904 230.44 161.006 230.44C161.846 230.44 162.522 230.697 163.036 231.21C163.558 231.723 163.82 232.465 163.82 233.436V238H162.252V233.912C162.252 232.54 161.682 231.854 160.544 231.854C160.012 231.854 159.545 232.027 159.144 232.372C158.752 232.708 158.546 233.203 158.528 233.856V238H156.96V233.912C156.96 233.203 156.834 232.685 156.582 232.358C156.33 232.022 155.933 231.854 155.392 231.854C154.85 231.854 154.379 232.036 153.978 232.4C153.576 232.755 153.376 233.277 153.376 233.968ZM171.407 234.584V230.552H172.975V238H171.407V236.642C171.155 237.099 170.805 237.459 170.357 237.72C169.918 237.981 169.442 238.112 168.929 238.112C168.089 238.112 167.408 237.855 166.885 237.342C166.372 236.829 166.115 236.087 166.115 235.116V230.552H167.683V234.64C167.683 236.012 168.252 236.698 169.391 236.698C169.932 236.698 170.404 236.521 170.805 236.166C171.206 235.802 171.407 235.275 171.407 234.584ZM177.018 238H175.45V227.612H177.018V238ZM185.526 238H184.098V237.006C183.482 237.743 182.656 238.112 181.62 238.112C180.845 238.112 180.201 237.893 179.688 237.454C179.184 237.015 178.932 236.432 178.932 235.704C178.932 234.967 179.202 234.416 179.744 234.052C180.285 233.688 181.018 233.506 181.942 233.506H183.972V233.226C183.972 232.237 183.421 231.742 182.32 231.742C181.629 231.742 180.91 231.994 180.164 232.498L179.464 231.518C180.369 230.799 181.396 230.44 182.544 230.44C183.421 230.44 184.135 230.664 184.686 231.112C185.246 231.551 185.526 232.246 185.526 233.198V238ZM183.958 235.228V234.598H182.194C181.064 234.598 180.5 234.953 180.5 235.662C180.5 236.026 180.64 236.306 180.92 236.502C181.2 236.689 181.587 236.782 182.082 236.782C182.586 236.782 183.024 236.642 183.398 236.362C183.771 236.082 183.958 235.704 183.958 235.228ZM189.758 231.812V235.592C189.758 235.947 189.852 236.231 190.038 236.446C190.225 236.651 190.486 236.754 190.822 236.754C191.158 236.754 191.48 236.591 191.788 236.264L192.432 237.37C191.882 237.865 191.27 238.112 190.598 238.112C189.936 238.112 189.366 237.883 188.89 237.426C188.424 236.959 188.19 236.334 188.19 235.55V231.812H187.252V230.552H188.19V228.214H189.758V230.552H191.718V231.812H189.758ZM195.446 238H193.878V230.552H195.446V238ZM193.976 229.068C193.78 228.872 193.682 228.639 193.682 228.368C193.682 228.097 193.78 227.864 193.976 227.668C194.172 227.472 194.405 227.374 194.676 227.374C194.947 227.374 195.18 227.472 195.376 227.668C195.572 227.864 195.67 228.097 195.67 228.368C195.67 228.639 195.572 228.872 195.376 229.068C195.18 229.264 194.947 229.362 194.676 229.362C194.405 229.362 194.172 229.264 193.976 229.068ZM199.656 236.04C200.104 236.488 200.668 236.712 201.35 236.712C202.031 236.712 202.591 236.488 203.03 236.04C203.478 235.583 203.702 234.995 203.702 234.276C203.702 233.557 203.478 232.974 203.03 232.526C202.591 232.069 202.031 231.84 201.35 231.84C200.668 231.84 200.104 232.069 199.656 232.526C199.217 232.974 198.998 233.557 198.998 234.276C198.998 234.995 199.217 235.583 199.656 236.04ZM204.15 237.006C203.403 237.743 202.47 238.112 201.35 238.112C200.23 238.112 199.296 237.743 198.55 237.006C197.803 236.259 197.43 235.349 197.43 234.276C197.43 233.203 197.803 232.297 198.55 231.56C199.296 230.813 200.23 230.44 201.35 230.44C202.47 230.44 203.403 230.813 204.15 231.56C204.896 232.297 205.27 233.203 205.27 234.276C205.27 235.349 204.896 236.259 204.15 237.006ZM208.821 233.968V238H207.253V230.552H208.821V231.91C209.073 231.453 209.418 231.093 209.857 230.832C210.305 230.571 210.785 230.44 211.299 230.44C212.139 230.44 212.815 230.697 213.329 231.21C213.851 231.723 214.113 232.465 214.113 233.436V238H212.545V233.912C212.545 232.54 211.975 231.854 210.837 231.854C210.295 231.854 209.824 232.036 209.423 232.4C209.021 232.755 208.821 233.277 208.821 233.968ZM226.579 238H225.151V237.006C224.535 237.743 223.709 238.112 222.673 238.112C221.898 238.112 221.254 237.893 220.741 237.454C220.237 237.015 219.985 236.432 219.985 235.704C219.985 234.967 220.256 234.416 220.797 234.052C221.338 233.688 222.071 233.506 222.995 233.506H225.025V233.226C225.025 232.237 224.474 231.742 223.373 231.742C222.682 231.742 221.964 231.994 221.217 232.498L220.517 231.518C221.422 230.799 222.449 230.44 223.597 230.44C224.474 230.44 225.188 230.664 225.739 231.112C226.299 231.551 226.579 232.246 226.579 233.198V238ZM225.011 235.228V234.598H223.247C222.118 234.598 221.553 234.953 221.553 235.662C221.553 236.026 221.693 236.306 221.973 236.502C222.253 236.689 222.64 236.782 223.135 236.782C223.639 236.782 224.078 236.642 224.451 236.362C224.824 236.082 225.011 235.704 225.011 235.228ZM230.53 233.968V238H228.962V230.552H230.53V231.91C230.782 231.453 231.127 231.093 231.566 230.832C232.014 230.571 232.495 230.44 233.008 230.44C233.848 230.44 234.525 230.697 235.038 231.21C235.561 231.723 235.822 232.465 235.822 233.436V238H234.254V233.912C234.254 232.54 233.685 231.854 232.546 231.854C232.005 231.854 231.533 232.036 231.132 232.4C230.731 232.755 230.53 233.277 230.53 233.968ZM241.251 238.112C240.308 238.112 239.487 237.757 238.787 237.048C238.087 236.339 237.737 235.405 237.737 234.248C237.737 233.091 238.096 232.167 238.815 231.476C239.533 230.785 240.387 230.44 241.377 230.44C242.375 230.44 243.178 230.86 243.785 231.7V227.612H245.353V238H243.785V236.88C243.206 237.701 242.361 238.112 241.251 238.112ZM239.305 234.318C239.305 235.027 239.533 235.606 239.991 236.054C240.448 236.502 240.985 236.726 241.601 236.726C242.217 236.726 242.739 236.502 243.169 236.054C243.598 235.597 243.813 235.013 243.813 234.304C243.813 233.595 243.598 233.002 243.169 232.526C242.739 232.05 242.212 231.812 241.587 231.812C240.961 231.812 240.425 232.05 239.977 232.526C239.529 233.002 239.305 233.599 239.305 234.318ZM144.997 255.774C144.997 256.483 144.74 257.053 144.227 257.482C143.714 257.902 143.056 258.112 142.253 258.112C141.712 258.112 141.147 258.014 140.559 257.818C139.98 257.622 139.467 257.347 139.019 256.992L139.775 255.774C140.643 256.427 141.483 256.754 142.295 256.754C142.65 256.754 142.93 256.675 143.135 256.516C143.34 256.348 143.443 256.138 143.443 255.886C143.443 255.513 142.948 255.177 141.959 254.878C141.884 254.85 141.828 254.831 141.791 254.822C140.242 254.402 139.467 253.702 139.467 252.722C139.467 252.031 139.733 251.481 140.265 251.07C140.806 250.65 141.506 250.44 142.365 250.44C143.224 250.44 144.036 250.692 144.801 251.196L144.213 252.358C143.606 251.957 142.948 251.756 142.239 251.756C141.866 251.756 141.562 251.826 141.329 251.966C141.096 252.097 140.979 252.297 140.979 252.568C140.979 252.811 141.1 252.988 141.343 253.1C141.511 253.184 141.744 253.263 142.043 253.338C142.351 253.413 142.622 253.487 142.855 253.562C143.088 253.637 143.312 253.721 143.527 253.814C143.751 253.907 143.989 254.038 144.241 254.206C144.745 254.542 144.997 255.065 144.997 255.774ZM148.541 253.968V258H146.973V250.552H148.541V251.91C148.765 251.453 149.101 251.093 149.549 250.832C150.006 250.571 150.496 250.44 151.019 250.44C152.195 250.44 152.993 250.925 153.413 251.896C154.15 250.925 155.07 250.44 156.171 250.44C157.011 250.44 157.688 250.697 158.201 251.21C158.724 251.723 158.985 252.465 158.985 253.436V258H157.417V253.912C157.417 252.54 156.848 251.854 155.709 251.854C155.177 251.854 154.71 252.027 154.309 252.372C153.917 252.708 153.712 253.203 153.693 253.856V258H152.125V253.912C152.125 253.203 151.999 252.685 151.747 252.358C151.495 252.022 151.098 251.854 150.557 251.854C150.016 251.854 149.544 252.036 149.143 252.4C148.742 252.755 148.541 253.277 148.541 253.968ZM167.398 258H165.97V257.006C165.354 257.743 164.528 258.112 163.492 258.112C162.718 258.112 162.074 257.893 161.56 257.454C161.056 257.015 160.804 256.432 160.804 255.704C160.804 254.967 161.075 254.416 161.616 254.052C162.158 253.688 162.89 253.506 163.814 253.506H165.844V253.226C165.844 252.237 165.294 251.742 164.192 251.742C163.502 251.742 162.783 251.994 162.036 252.498L161.336 251.518C162.242 250.799 163.268 250.44 164.416 250.44C165.294 250.44 166.008 250.664 166.558 251.112C167.118 251.551 167.398 252.246 167.398 253.198V258ZM165.83 255.228V254.598H164.066C162.937 254.598 162.372 254.953 162.372 255.662C162.372 256.026 162.512 256.306 162.792 256.502C163.072 256.689 163.46 256.782 163.954 256.782C164.458 256.782 164.897 256.642 165.27 256.362C165.644 256.082 165.83 255.704 165.83 255.228ZM171.349 258H169.781V247.612H171.349V258ZM175.391 258H173.823V247.612H175.391V258ZM177.739 254.556V253.086H182.387V254.556H177.739ZM190.029 255.774C190.029 256.483 189.772 257.053 189.259 257.482C188.746 257.902 188.088 258.112 187.285 258.112C186.744 258.112 186.179 258.014 185.591 257.818C185.012 257.622 184.499 257.347 184.051 256.992L184.807 255.774C185.675 256.427 186.515 256.754 187.327 256.754C187.682 256.754 187.962 256.675 188.167 256.516C188.372 256.348 188.475 256.138 188.475 255.886C188.475 255.513 187.98 255.177 186.991 254.878C186.916 254.85 186.86 254.831 186.823 254.822C185.274 254.402 184.499 253.702 184.499 252.722C184.499 252.031 184.765 251.481 185.297 251.07C185.838 250.65 186.538 250.44 187.397 250.44C188.256 250.44 189.068 250.692 189.833 251.196L189.245 252.358C188.638 251.957 187.98 251.756 187.271 251.756C186.898 251.756 186.594 251.826 186.361 251.966C186.128 252.097 186.011 252.297 186.011 252.568C186.011 252.811 186.132 252.988 186.375 253.1C186.543 253.184 186.776 253.263 187.075 253.338C187.383 253.413 187.654 253.487 187.887 253.562C188.12 253.637 188.344 253.721 188.559 253.814C188.783 253.907 189.021 254.038 189.273 254.206C189.777 254.542 190.029 255.065 190.029 255.774ZM195.309 258.112C194.273 258.112 193.382 257.762 192.635 257.062C191.888 256.353 191.515 255.429 191.515 254.29C191.515 253.151 191.902 252.227 192.677 251.518C193.461 250.799 194.413 250.44 195.533 250.44C196.653 250.44 197.6 250.827 198.375 251.602L197.451 252.736C196.807 252.176 196.158 251.896 195.505 251.896C194.852 251.896 194.282 252.115 193.797 252.554C193.321 252.983 193.083 253.543 193.083 254.234C193.083 254.915 193.321 255.494 193.797 255.97C194.273 256.446 194.856 256.684 195.547 256.684C196.247 256.684 196.905 256.367 197.521 255.732L198.445 256.74C197.54 257.655 196.494 258.112 195.309 258.112ZM206.251 258H204.823V257.006C204.207 257.743 203.381 258.112 202.345 258.112C201.57 258.112 200.926 257.893 200.413 257.454C199.909 257.015 199.657 256.432 199.657 255.704C199.657 254.967 199.927 254.416 200.469 254.052C201.01 253.688 201.743 253.506 202.667 253.506H204.697V253.226C204.697 252.237 204.146 251.742 203.045 251.742C202.354 251.742 201.635 251.994 200.889 252.498L200.189 251.518C201.094 250.799 202.121 250.44 203.269 250.44C204.146 250.44 204.86 250.664 205.411 251.112C205.971 251.551 206.251 252.246 206.251 253.198V258ZM204.683 255.228V254.598H202.919C201.789 254.598 201.225 254.953 201.225 255.662C201.225 256.026 201.365 256.306 201.645 256.502C201.925 256.689 202.312 256.782 202.807 256.782C203.311 256.782 203.749 256.642 204.123 256.362C204.496 256.082 204.683 255.704 204.683 255.228ZM210.201 258H208.633V247.612H210.201V258ZM219.605 254.962H213.767C213.805 255.503 214.052 255.942 214.509 256.278C214.967 256.605 215.489 256.768 216.077 256.768C217.011 256.768 217.72 256.474 218.205 255.886L219.101 256.866C218.299 257.697 217.253 258.112 215.965 258.112C214.92 258.112 214.029 257.767 213.291 257.076C212.563 256.376 212.199 255.443 212.199 254.276C212.199 253.1 212.573 252.167 213.319 251.476C214.066 250.785 214.943 250.44 215.951 250.44C216.969 250.44 217.832 250.748 218.541 251.364C219.251 251.971 219.605 252.811 219.605 253.884V254.962ZM213.767 253.73H218.037C218.037 253.105 217.841 252.624 217.449 252.288C217.057 251.952 216.572 251.784 215.993 251.784C215.424 251.784 214.911 251.961 214.453 252.316C213.996 252.661 213.767 253.133 213.767 253.73ZM221.614 257.804C221.418 257.599 221.32 257.351 221.32 257.062C221.32 256.773 221.418 256.53 221.614 256.334C221.819 256.129 222.066 256.026 222.356 256.026C222.645 256.026 222.892 256.129 223.098 256.334C223.303 256.53 223.406 256.773 223.406 257.062C223.406 257.351 223.303 257.599 223.098 257.804C222.892 258.009 222.645 258.112 222.356 258.112C222.066 258.112 221.819 258.009 221.614 257.804ZM225.737 257.804C225.541 257.599 225.443 257.351 225.443 257.062C225.443 256.773 225.541 256.53 225.737 256.334C225.943 256.129 226.19 256.026 226.479 256.026C226.769 256.026 227.016 256.129 227.221 256.334C227.427 256.53 227.529 256.773 227.529 257.062C227.529 257.351 227.427 257.599 227.221 257.804C227.016 258.009 226.769 258.112 226.479 258.112C226.19 258.112 225.943 258.009 225.737 257.804Z" fill="#737373"/>
</g>
<defs>
<filter id="filter0_d_2_80" x="0.5" y="0" width="366" height="330" filterUnits="userSpaceOnUse" color-interpolation-filters="sRGB">
<feFlood flood-opacity="0" result="BackgroundImageFix"/>
<feColorMatrix in="SourceAlpha" type="matrix" values="0 0 0 0 0 0 0 0 0 0 0 0 0 0 0 0 0 0 127 0" result="hardAlpha"/>
<feOffset dy="13"/>
<feGaussianBlur stdDeviation="9.5"/>
<feColorMatrix type="matrix" values="0 0 0 0 0 0 0 0 0 0 0 0 0 0 0 0 0 0 0.07 0"/>
<feBlend mode="normal" in2="BackgroundImageFix" result="effect1_dropShadow_2_80"/>
<feBlend mode="normal" in="SourceGraphic" in2="effect1_dropShadow_2_80" result="shape"/>
</filter>
</defs>
</svg>
